<svg width="24" height="24" viewBox="0 0 24 24" fill="none" xmlns="http://www.w3.org/2000/svg">
<rect width="24" height="24" rx="8" fill="#E5ECF6"/>
<path d="M13.5 6V9.5H17L13.5 6Z" fill="#1C1C1C"/>
<path d="M16.5 9.70711V12C16.5 12.2761 16.7239 12.5 17 12.5C17.2761 12.5 17.5 12.2761 17.5 12V9.5C17.5 9.36739 17.4473 9.24021 17.3536 9.14645L13.8536 5.64645C13.7598 5.55268 13.6326 5.5 13.5 5.5L7.5 5.5C7.08579 5.5 6.79289 5.79289 6.79289 5.79289C6.5 6.08579 6.5 6.5 6.5 6.5V12C6.5 12.2761 6.72386 12.5 7 12.5C7.27614 12.5 7.5 12.2761 7.5 12V6.5H13.2929L16.5 9.70711Z" fill="#1C1C1C"/>
<path d="M13.5 10H17C17.2761 10 17.5 9.77614 17.5 9.5C17.5 9.22386 17.2761 9 17 9H14V6C14 5.72386 13.7761 5.5 13.5 5.5C13.2239 5.5 13 5.72386 13 6V9.5C13 9.77614 13.2239 10 13.5 10Z" fill="#1C1C1C"/>
<path fill-rule="evenodd" clip-rule="evenodd" d="M6.5 17.5V14.5C6.5 14.2239 6.72386 14 7 14H8C8 14 8.62132 14 9.06066 14.4393C9.06066 14.4393 9.5 14.8787 9.5 15.5C9.5 15.5 9.5 16.1213 9.06066 16.5607C9.06066 16.5607 8.62132 17 8 17H7.5V17.5C7.5 17.7761 7.27614 18 7 18C6.72386 18 6.5 17.7761 6.5 17.5ZM8 16H7.5V15H8C8 15 8.20711 15 8.35355 15.1464C8.35355 15.1464 8.5 15.2929 8.5 15.5C8.5 15.5 8.5 15.7071 8.35355 15.8536C8.35355 15.8536 8.20711 16 8 16Z" fill="#1C1C1C"/>
<path d="M15.25 14.5V17.5C15.25 17.7761 15.4739 18 15.75 18C16.0261 18 16.25 17.7761 16.25 17.5V15H17.5C17.7761 15 18 14.7761 18 14.5C18 14.2239 17.7761 14 17.5 14H15.75C15.4739 14 15.25 14.2239 15.25 14.5Z" fill="#1C1C1C"/>
<path d="M17.25 15.75H15.75C15.4739 15.75 15.25 15.9739 15.25 16.25C15.25 16.5261 15.4739 16.75 15.75 16.75H17.25C17.5261 16.75 17.75 16.5261 17.75 16.25C17.75 15.9739 17.5261 15.75 17.25 15.75Z" fill="#1C1C1C"/>
<path fill-rule="evenodd" clip-rule="evenodd" d="M11.125 18C10.8489 18 10.625 17.7761 10.625 17.5V14.5C10.625 14.2239 10.8489 14 11.125 14H12C12 14 12.8284 14 13.4142 14.5858C13.4142 14.5858 14 15.1716 14 16C14 16 14 16.8284 13.4142 17.4142C13.4142 17.4142 12.8284 18 12 18H11.125ZM12 17H11.625V15H12C12 15 12.4142 15 12.7071 15.2929C12.7071 15.2929 13 15.5858 13 16C13 16 13 16.4142 12.7071 16.7071C12.7071 16.7071 12.4142 17 12 17Z" fill="#1C1C1C"/>
</svg>
