<svg width="17" height="14" viewBox="0 0 17 14" fill="none" xmlns="http://www.w3.org/2000/svg">
<path d="M6.35723 7.39277C5.625 6.66053 5.625 5.625 5.625 5.625C5.625 5.27982 5.34518 5 5 5C4.65482 5 4.375 5.27982 4.375 5.625C4.375 7.1783 5.47335 8.27665 5.47335 8.27665C6.5717 9.375 8.125 9.375 8.125 9.375C9.6783 9.375 10.7767 8.27665 10.7767 8.27665C11.875 7.1783 11.875 5.625 11.875 5.625C11.875 5.27982 11.5952 5 11.25 5C10.9048 5 10.625 5.27982 10.625 5.625C10.625 6.66053 9.89277 7.39277 9.89277 7.39277C9.16053 8.125 8.125 8.125 8.125 8.125C7.08947 8.125 6.35723 7.39277 6.35723 7.39277Z" fill="#1C1C1C"/>
<path d="M0.625 3.75H15.625C15.9702 3.75 16.25 3.47018 16.25 3.125C16.25 2.77982 15.9702 2.5 15.625 2.5H0.625C0.279822 2.5 0 2.77982 0 3.125C0 3.47018 0.279822 3.75 0.625 3.75Z" fill="#1C1C1C"/>
<path fill-rule="evenodd" clip-rule="evenodd" d="M0 1.25C0 1.25 0 0.732233 0.366117 0.366117C0.366117 0.366117 0.732233 0 1.25 0H15C15 0 15.5178 0 15.8839 0.366117C15.8839 0.366117 16.25 0.732232 16.25 1.25V12.5C16.25 12.5 16.25 13.0178 15.8839 13.3839C15.8839 13.3839 15.5178 13.75 15 13.75H1.25C1.25 13.75 0.732232 13.75 0.366116 13.3839C0.366116 13.3839 0 13.0178 0 12.5V1.25ZM1.25 1.25V12.5H15V1.25H1.25Z" fill="#1C1C1C"/>
<path d="M0.625 3.125H15.625V1.25C15.625 1.08429 15.5591 0.925293 15.4419 0.808105C15.3247 0.690918 15.1658 0.625 15 0.625H1.25C1.08424 0.625 0.925264 0.690918 0.808058 0.808105C0.690851 0.925293 0.625 1.08429 0.625 1.25V3.125Z" fill="black" fill-opacity="0.1"/>
</svg>
