<svg width="29" height="26" viewBox="0 0 29 26" fill="none" xmlns="http://www.w3.org/2000/svg">
<path d="M5.2876 6H27.7126L24.4126 17.55C24.2949 17.9692 24.0427 18.3381 23.6949 18.6001C23.3472 18.8621 22.923 19.0024 22.4876 19H10.5126C10.0772 19.0024 9.65302 18.8621 9.30524 18.6001C8.95746 18.3381 8.70535 17.9692 8.58759 17.55L5.2876 6Z" fill="white"/>
<path fill-rule="evenodd" clip-rule="evenodd" d="M1 8.58344e-09H3.1C3.1 8.58344e-09 3.76909 -0.000705591 4.30437 0.402494C4.30437 0.402494 4.83965 0.805693 5.02394 1.45L6.03903 5H27.7125C27.8054 5 27.8979 5.01295 27.9872 5.03848C28.5183 5.1902 28.8257 5.74369 28.674 6.27472L25.3752 17.8204C25.3752 17.8204 25.1024 18.7918 24.2965 19.3988C24.2965 19.3988 23.4906 20.0058 22.4875 20L10.5183 20C10.5183 20 9.50939 20.0058 8.70349 19.3988C8.70349 19.3988 7.8976 18.7918 7.62603 17.8249L3.10106 2L3.1 2H1C0.447715 2 0 1.55229 0 1C0 0.447716 0.447715 8.58344e-09 1 8.58344e-09ZM9.54897 17.2751L6.61091 7H26.3868L23.4498 17.2796C23.4498 17.2796 23.3596 17.6007 23.0932 17.8013C23.0932 17.8013 22.8268 18.002 22.4875 18L10.5067 18C10.5067 18 10.1732 18.002 9.90681 17.8013C9.90681 17.8013 9.64043 17.6006 9.54897 17.2751Z" fill="#1C1C1C"/>
<path d="M25 24C25 25.1045 24.1046 26 23 26C21.8954 26 21 25.1045 21 24C21 22.8955 21.8954 22 23 22C24.1046 22 25 22.8955 25 24Z" fill="#1C1C1C"/>
<path d="M12 24C12 25.1045 11.1046 26 10 26C8.89542 26 8 25.1045 8 24C8 22.8955 8.89542 22 10 22C11.1046 22 12 22.8955 12 24Z" fill="#1C1C1C"/>
</svg>
