<svg width="24" height="24" viewBox="0 0 24 24" fill="none" xmlns="http://www.w3.org/2000/svg">
<path fill-rule="evenodd" clip-rule="evenodd" d="M2 1H22C22.2651 1 22.5195 1.10547 22.707 1.29297C22.8945 1.48047 23 1.73486 23 2V22C23 22.2651 22.8945 22.5195 22.707 22.707C22.5195 22.8945 22.2651 23 22 23H20.7749C20.3218 21.0117 19.2068 19.2361 17.6125 17.9644C16.0183 16.6926 14.0393 16 12 16C13.3262 16 14.5979 15.4731 15.5356 14.5356C16.4731 13.5979 17 12.3262 17 11C17 10.011 16.7068 9.04443 16.1572 8.22217C15.6079 7.3999 14.8271 6.75903 13.9133 6.38062C12.9998 6.0022 11.9944 5.90308 11.0247 6.09619C10.0547 6.28906 9.16382 6.76514 8.46436 7.46436C7.76514 8.16382 7.28906 9.05469 7.09619 10.0247C6.90308 10.9944 7.0022 11.9998 7.38062 12.9133C7.75903 13.8271 8.3999 14.6079 9.22217 15.1572C10.0444 15.7068 11.011 16 12 16C9.96069 16 7.98169 16.6926 6.38745 17.9644C4.79321 19.2361 3.67822 21.0117 3.2251 23H2C1.73486 23 1.48047 22.8945 1.29297 22.707C1.10547 22.5195 1 22.2651 1 22V2C1 1.73486 1.10547 1.48047 1.29297 1.29297C1.48047 1.10547 1.73486 1 2 1Z" fill="white"/>
<path fill-rule="evenodd" clip-rule="evenodd" d="M12 5C12 5 14.4853 5 16.2426 6.75736C16.2426 6.75736 18 8.51472 18 11C18 11 18 13.4853 16.2426 15.2426C16.2426 15.2426 14.4853 17 12 17C12 17 9.51472 17 7.75736 15.2426C7.75736 15.2426 6 13.4853 6 11C6 11 6 8.51472 7.75736 6.75736C7.75736 6.75736 9.51472 5 12 5ZM12 7C12 7 10.3431 7 9.17157 8.17157C9.17157 8.17157 8 9.34315 8 11C8 11 8 12.6569 9.17157 13.8284C9.17157 13.8284 10.3431 15 12 15C12 15 13.6569 15 14.8284 13.8284C14.8284 13.8284 16 12.6569 16 11C16 11 16 9.34315 14.8284 8.17157C14.8284 8.17157 13.6569 7 12 7Z" fill="#1C1C1C"/>
<path fill-rule="evenodd" clip-rule="evenodd" d="M0 2C0 2 0 1.17157 0.585787 0.585787C0.585787 0.585787 1.17157 0 2 0H22C22 0 22.8284 0 23.4142 0.585786C23.4142 0.585786 24 1.17157 24 2V22C24 22 24 22.8284 23.4142 23.4142C23.4142 23.4142 22.8284 24 22 24H2C2 24 1.17157 24 0.585786 23.4142C0.585786 23.4142 0 22.8284 0 22V2ZM2 2V22H22V2H2Z" fill="#1C1C1C"/>
<path d="M16.989 18.746C19.1779 20.4922 19.8001 23.2222 19.8001 23.2222C19.859 23.4808 20.0183 23.7054 20.2428 23.8466C20.4022 23.9468 20.5868 24 20.7751 24L20.7801 24C20.8532 23.9996 20.926 23.9912 20.9973 23.975C21.4523 23.8713 21.7751 23.4667 21.7751 23L21.7749 22.9826C21.7737 22.9137 21.7654 22.845 21.7501 22.7778C20.9724 19.3652 18.2363 17.1825 18.2363 17.1825C15.5002 14.9998 12.0001 14.9998 12.0001 14.9998C8.50004 14.9998 5.76393 17.1825 5.76393 17.1825C3.02823 19.3649 2.25033 22.7768 2.25033 22.7768L2.2501 22.7778C2.23348 22.8507 2.2251 22.9252 2.2251 23L2.22529 23.0197C2.22887 23.2013 2.28185 23.3785 2.37855 23.5323C2.51972 23.7568 2.74431 23.9161 3.00289 23.975C3.07579 23.9916 3.15033 24 3.2251 24C3.24332 24 3.26155 23.9995 3.27975 23.9985C3.72539 23.9741 4.10093 23.6574 4.2001 23.2222C4.82228 20.4922 7.01117 18.746 7.01117 18.746C9.20005 16.9998 12.0001 16.9998 12.0001 16.9998C14.8001 16.9998 16.989 18.746 16.989 18.746Z" fill="#1C1C1C"/>
</svg>
