<svg width="26" height="26" viewBox="0 0 26 26" fill="none" xmlns="http://www.w3.org/2000/svg">
<path fill-rule="evenodd" clip-rule="evenodd" d="M4.61418 25.2744C4.61418 25.2744 2.3349 24.9079 0.997671 22.9767C0.997671 22.9767 -0.325024 21.0664 0.0755576 18.7888L3.10066 1.65074C3.10066 1.65074 3.163 1.26887 3.37489 0.930046C3.37489 0.930046 3.58678 0.591222 3.91316 0.360626C3.91316 0.360626 4.23954 0.13003 4.62968 0.0435056C4.62968 0.0435056 5.01983 -0.043019 5.41309 0.0279751L12.3085 1.23966C12.3085 1.23966 13.1277 1.39277 13.5989 2.06692C13.5989 2.06692 14.0701 2.74106 13.9342 3.55225L10.8953 20.7981C10.8953 20.7981 10.4984 23.0128 8.66865 24.3172C8.66865 24.3172 6.83894 25.6216 4.61875 25.2751L4.61418 25.2744ZM4.92713 23.299L4.93171 23.2997C4.93171 23.2997 6.34369 23.5184 7.50768 22.6887C7.50768 22.6887 8.67354 21.8575 8.92561 20.451L11.9617 3.22188C11.9617 3.22188 11.9625 3.21685 11.9596 3.21266C11.9596 3.21266 11.9592 3.21213 11.9589 3.2115C11.9587 3.21093 11.9585 3.21029 11.9587 3.20989C11.9587 3.20989 11.9593 3.20894 11.9623 3.20947L5.07022 1.99839L2.04532 19.1353C2.04532 19.1353 1.78709 20.6035 2.64196 21.8381C2.64196 21.8381 3.49261 23.0666 4.92713 23.299Z" fill="#1C1C1C"/>
<path d="M6.6693 23.1221L6.66847 23.1224C6.41925 23.2131 6.21627 23.3991 6.10419 23.6394C6.04248 23.7718 6.0105 23.916 6.0105 24.0621L6.01052 24.0681C6.01122 24.1828 6.03161 24.2964 6.07081 24.4041C6.2146 24.7991 6.5901 25.0621 7.0105 25.0621L7.032 25.0618C7.14141 25.0595 7.24969 25.0392 7.35253 25.0017L7.35336 25.0014L23.8025 19.0142C24.5771 18.7323 24.928 17.9865 24.928 17.9865C25.279 17.2407 25.0026 16.4642 25.0026 16.4642L22.5999 9.88166C22.4663 9.50991 22.1966 9.21438 22.1966 9.21438C21.9269 8.91884 21.5642 8.74983 21.5642 8.74983C21.2015 8.58082 20.8017 8.56434 20.8017 8.56434C20.402 8.54787 20.0266 8.68646 20.0266 8.68646L10.9191 11.9971L10.9189 11.9972C10.5236 12.1409 10.2605 12.5165 10.2605 12.9371L10.2607 12.9581C10.263 13.0676 10.2833 13.1758 10.3207 13.2787C10.4113 13.528 10.5972 13.731 10.8375 13.8432C10.97 13.905 11.1143 13.9371 11.2605 13.9371L11.2662 13.937C11.3808 13.9364 11.4944 13.916 11.6021 13.8769L20.7194 10.5626L20.7211 10.5674L23.1184 17.1349L6.6693 23.1221Z" fill="#1C1C1C"/>
<path d="M22.9729 23.3371H5.4729C4.92062 23.3371 4.4729 23.7848 4.4729 24.3371C4.4729 24.8894 4.92062 25.3371 5.4729 25.3371H22.9729C23.8013 25.3371 24.3871 24.7513 24.3871 24.7513C24.9729 24.1655 24.9729 23.3371 24.9729 23.3371V17.6496C24.9729 17.0973 24.5252 16.6496 23.9729 16.6496C23.4206 16.6496 22.9729 17.0973 22.9729 17.6496V23.3371Z" fill="#1C1C1C"/>
<path d="M6.9729 19.8371C6.9729 20.6654 6.30127 21.3371 5.4729 21.3371C4.64453 21.3371 3.9729 20.6654 3.9729 19.8371C3.9729 19.0087 4.64453 18.3371 5.4729 18.3371C6.30127 18.3371 6.9729 19.0087 6.9729 19.8371Z" fill="#1C1C1C"/>
</svg>
