<svg width="19" height="3" viewBox="0 0 19 3" fill="none" xmlns="http://www.w3.org/2000/svg">
<path d="M11 1.5C11 2.32837 10.3284 3 9.5 3C8.67163 3 8 2.32837 8 1.5C8 0.671631 8.67163 0 9.5 0C10.3284 0 11 0.671631 11 1.5Z" fill="#1C1C1C"/>
<path d="M19 1.5C19 2.32837 18.3284 3 17.5 3C16.6716 3 16 2.32837 16 1.5C16 0.671631 16.6716 0 17.5 0C18.3284 0 19 0.671631 19 1.5Z" fill="#1C1C1C"/>
<path d="M3 1.5C3 2.32837 2.32837 3 1.5 3C0.671631 3 0 2.32837 0 1.5C0 0.671631 0.671631 0 1.5 0C2.32837 0 3 0.671631 3 1.5Z" fill="#1C1C1C"/>
</svg>
