<svg width="24" height="24" viewBox="0 0 24 24" fill="none" xmlns="http://www.w3.org/2000/svg">
<path d="M2 2H9C9.55229 2 10 1.55228 10 1C10 0.447715 9.55229 0 9 0H2C1.17157 0 0.585787 0.585787 0.585787 0.585787C0 1.17157 0 2 0 2V22C0 22.8284 0.585787 23.4142 0.585787 23.4142C1.17157 24 2 24 2 24H9C9.55229 24 10 23.5523 10 23C10 22.4477 9.55229 22 9 22H2V2Z" fill="#1C1C1C"/>
<path d="M9 13H23C23.5523 13 24 12.5523 24 12C24 11.4477 23.5523 11 23 11H9C8.44772 11 8 11.4477 8 12C8 12.5523 8.44772 13 9 13Z" fill="#1C1C1C"/>
<path d="M21.5858 12L17.0433 16.5425L17.0429 16.5429C16.8554 16.7304 16.75 16.9848 16.75 17.25C16.75 17.266 16.7504 17.282 16.7512 17.298C16.7631 17.5464 16.8671 17.7813 17.0429 17.9571C17.2304 18.1446 17.4848 18.25 17.75 18.25C18.0152 18.25 18.2696 18.1446 18.4571 17.9571L18.4575 17.9567L23.7071 12.7071C23.8946 12.5196 24 12.2652 24 12C24 11.7348 23.8946 11.4804 23.7071 11.2929L18.4572 6.04301C18.2696 5.85536 18.0152 5.75 17.75 5.75C17.4848 5.75 17.2304 5.85536 17.0429 6.04289C16.8554 6.23043 16.75 6.48478 16.75 6.75C16.75 7.01522 16.8554 7.26957 17.0429 7.45711L21.5858 12Z" fill="#1C1C1C"/>
</svg>
